<svg width="57" height="69" viewBox="0 0 57 69" fill="none" xmlns="http://www.w3.org/2000/svg">
<path fill-rule="evenodd" clip-rule="evenodd" d="M12.2032 14.3854C12.2032 16.9989 11.0306 18.3492 8.6853 18.4371C6.34436 18.347 5.17389 16.9965 5.17389 14.3856V9.93384H10.1614V6.04309H5.17389V0H0V6.04309V9.93384V14.4684C0 17.0621 0.676086 19.0214 2.0282 20.3458C3.38031 21.6427 5.47748 22.2914 8.31964 22.2914C8.36664 22.2914 8.43011 22.2914 8.5094 22.2897C8.573 22.2904 8.63666 22.2906 8.70068 22.2906C8.76196 22.2906 8.823 22.2902 8.88385 22.2897C8.95569 22.2911 9.01379 22.2911 9.05756 22.2911C11.8997 22.2911 13.9969 21.6427 15.349 20.3458C16.7011 19.0211 17.3771 17.0621 17.3771 14.4683V11.361V6.04956H12.2032V11.361V14.3854ZM12.1381 0H17.4012V4.00928H12.1381V0Z" transform="translate(2.54645 1.06311) scale(3)" fill="#5649CF"/>
</svg>
