<?xml version="1.0" standalone="no"?>
<!DOCTYPE svg PUBLIC "-//W3C//DTD SVG 20010904//EN"
 "http://www.w3.org/TR/2001/REC-SVG-20010904/DTD/svg10.dtd">
<svg version="1.0" xmlns="http://www.w3.org/2000/svg"
 width="1104.000000pt" height="1104.000000pt" viewBox="0 0 1104.000000 1104.000000"
 preserveAspectRatio="xMidYMid meet">
<metadata>
Created by potrace 1.11, written by Peter Selinger 2001-2013
</metadata>
<g transform="translate(0.000000,1104.000000) scale(0.100000,-0.100000)"
fill="#000000" stroke="none">
<path d="M1369 10853 c-4 -125 1 -7107 6 -7208 9 -201 14 -262 31 -415 3 -30
6 -65 7 -77 1 -13 4 -23 9 -23 4 0 5 -6 2 -14 -5 -13 52 -361 61 -376 2 -4 7
-20 9 -36 13 -70 55 -229 82 -314 3 -8 6 -17 6 -20 1 -9 49 -144 63 -175 7
-16 16 -40 20 -53 3 -12 20 -52 36 -87 16 -36 29 -67 29 -70 0 -6 103 -206
145 -280 15 -27 43 -71 61 -98 19 -26 34 -50 34 -53 0 -8 137 -191 194 -259
51 -61 242 -254 287 -290 89 -72 173 -136 229 -174 36 -25 67 -48 70 -51 3 -3
20 -12 38 -19 17 -8 32 -17 32 -21 0 -4 8 -10 18 -14 9 -3 33 -15 52 -26 36
-22 191 -103 200 -105 3 -1 32 -14 65 -29 150 -69 508 -196 553 -196 10 0 22
-3 26 -7 3 -4 12 -8 19 -9 10 -2 135 -31 217 -51 14 -3 34 -8 45 -10 11 -2 31
-5 45 -8 14 -2 41 -7 60 -10 19 -3 58 -10 85 -15 61 -12 97 -18 150 -25 22 -3
54 -7 70 -9 60 -8 161 -19 190 -21 17 -1 32 -3 35 -4 3 -1 30 -4 60 -6 30 -1
109 -7 175 -11 147 -10 1162 -11 1300 -1 231 17 331 26 374 32 18 3 57 8 85
10 28 3 116 17 196 30 80 14 161 27 180 30 19 3 44 8 55 12 11 4 27 7 35 8 64
9 386 96 447 121 18 8 35 14 38 14 8 0 23 4 50 14 11 5 52 20 90 34 39 14 75
30 81 34 7 5 21 10 32 13 28 5 264 121 350 172 41 24 78 43 83 43 5 0 9 5 9
10 0 6 7 10 15 10 8 0 15 5 15 10 0 6 5 10 10 10 13 0 194 129 198 141 2 5 9
9 16 9 6 0 18 9 26 20 8 11 18 20 21 20 8 0 86 69 163 145 76 75 223 242 240
273 5 9 13 19 17 22 4 3 41 57 83 120 42 63 80 120 84 125 48 67 194 372 247
515 15 41 31 84 36 95 8 20 22 66 24 75 0 3 4 11 8 18 5 6 6 12 2 12 -3 0 -1
9 5 20 14 26 53 173 89 335 26 118 32 145 35 175 5 34 15 101 21 129 2 13 7
49 11 80 3 31 8 65 10 76 2 11 6 50 9 86 3 36 8 83 10 105 16 133 19 441 21
2405 l3 2175 -1240 0 c-681 0 -1240 -2 -1240 -5 -1 -3 -2 -940 -4 -2081 -1
-1141 -5 -2115 -9 -2165 -11 -137 -22 -238 -30 -271 -3 -11 -8 -45 -12 -75 -3
-30 -8 -57 -10 -61 -2 -3 -15 -51 -29 -105 -92 -365 -283 -667 -540 -857 -22
-17 -43 -34 -46 -39 -3 -5 -9 -8 -13 -8 -3 1 -30 -13 -59 -32 -46 -29 -124
-70 -137 -72 -3 0 -21 -8 -40 -18 -39 -18 -212 -77 -249 -84 -14 -2 -28 -6
-32 -8 -4 -3 -24 -7 -44 -11 -21 -3 -47 -8 -59 -11 -11 -2 -37 -7 -56 -9 -19
-3 -46 -7 -60 -10 -98 -18 -364 -25 -455 -11 -118 18 -240 39 -245 42 -6 4
-16 6 -83 20 -27 5 -105 30 -137 42 -8 3 -22 7 -30 9 -16 3 -18 4 -143 64 -92
44 -217 123 -277 175 -58 50 -164 158 -190 194 -14 19 -30 39 -36 45 -13 13
-84 124 -84 131 0 3 -11 23 -25 45 -61 97 -160 382 -190 550 -5 30 -25 163
-31 205 -2 17 -7 50 -10 75 -3 25 -8 591 -10 1258 -3 952 -1 1212 9 1213 6 0
545 1 1197 2 l1185 2 0 930 0 930 -1197 3 -1197 2 0 1403 c0 771 0 1423 -1
1450 l0 47 -1240 0 c-1174 0 -1240 -1 -1241 -17z"/>
<path d="M7199 10863 c-5 -23 -4 -1913 1 -1914 3 -1 571 -2 1262 -3 l1256 -1
5 28 c2 15 0 30 -4 32 -4 3 -3 20 1 39 4 19 4 40 0 46 -4 7 -4 26 0 41 5 17 5
31 -1 35 -5 3 -7 10 -3 15 7 12 9 117 2 124 -3 4 -2 22 2 41 4 18 4 34 -1 34
-4 0 -5 10 0 22 4 12 5 37 1 55 -5 18 -5 33 -1 33 7 0 6 69 -2 76 -2 3 -1 21
3 40 5 19 4 37 -1 40 -5 3 -7 10 -4 15 6 8 9 121 5 144 -1 6 -1 14 0 20 4 23
3 115 -2 120 -3 4 -2 22 2 41 4 18 4 34 -1 34 -4 0 -5 10 0 22 4 12 5 37 1 55
-5 18 -5 33 -1 33 7 0 6 69 -2 76 -2 3 -1 21 3 40 4 19 4 36 0 39 -4 3 -4 20
0 39 4 19 4 40 0 46 -4 7 -4 26 0 41 5 17 5 31 -1 35 -5 3 -7 10 -3 15 7 12 9
117 2 124 -3 4 -2 22 2 41 4 18 4 34 -1 34 -5 0 -4 11 1 25 6 15 6 26 -1 30
-5 4 -7 11 -3 16 5 9 7 79 2 122 -1 16 -69 17 -1260 17 -692 0 -1259 -3 -1259
-7z"/>
</g>
</svg>
